<svg xmlns="http://www.w3.org/2000/svg" fill="none" viewBox="0 3 322 130">
  <path
      d="M73.8 48.9C74.6667 48.9 75.3667 49.2 75.9 49.8C76.5 50.4 76.8 51.1333 76.8 52V97C76.8 97.8 76.5 98.5 75.9 99.1C75.3 99.7 74.6 100 73.8 100C72.9333 100 72.2 99.7 71.6 99.1C71.0667 98.5 70.8 97.8 70.8 97V85.1L72.5 84.3C72.5 86.1667 71.9667 88.0667 70.9 90C69.9 91.9333 68.5 93.7333 66.7 95.4C64.9 97.0667 62.7667 98.4333 60.3 99.5C57.9 100.5 55.3 101 52.5 101C47.9667 101 43.9 99.8333 40.3 97.5C36.7667 95.1667 33.9667 91.9667 31.9 87.9C29.9 83.8333 28.9 79.2667 28.9 74.2C28.9 69 29.9333 64.4333 32 60.5C34.0667 56.5 36.8667 53.3667 40.4 51.1C43.9333 48.8333 47.9333 47.7 52.4 47.7C55.2667 47.7 57.9333 48.2 60.4 49.2C62.9333 50.2 65.1333 51.5667 67 53.3C68.8667 55.0333 70.3 57.0333 71.3 59.3C72.3667 61.5 72.9 63.8 72.9 66.2L70.8 64.7V52C70.8 51.1333 71.0667 50.4 71.6 49.8C72.2 49.2 72.9333 48.9 73.8 48.9ZM53 95.4C56.5333 95.4 59.6667 94.5 62.4 92.7C65.1333 90.8333 67.2667 88.3 68.8 85.1C70.4 81.8333 71.2 78.2 71.2 74.2C71.2 70.2667 70.4 66.7333 68.8 63.6C67.2667 60.4667 65.1333 57.9667 62.4 56.1C59.6667 54.2333 56.5333 53.3 53 53.3C49.5333 53.3 46.4 54.2 43.6 56C40.8667 57.8 38.7 60.2667 37.1 63.4C35.5667 66.5333 34.8 70.1333 34.8 74.2C34.8 78.2 35.5667 81.8333 37.1 85.1C38.7 88.3 40.8667 90.8333 43.6 92.7C46.3333 94.5 49.4667 95.4 53 95.4ZM116.845 48.5C121.378 48.5 125.378 49.6333 128.845 51.9C132.378 54.1 135.178 57.1667 137.245 61.1C139.311 64.9667 140.345 69.4333 140.345 74.5C140.345 79.5667 139.311 84.0667 137.245 88C135.178 91.9333 132.378 95.0333 128.845 97.3C125.311 99.5667 121.345 100.7 116.945 100.7C114.611 100.7 112.378 100.367 110.245 99.7C108.178 98.9667 106.278 98 104.545 96.8C102.811 95.6 101.278 94.2 99.9445 92.6C98.6112 90.9333 97.5445 89.1333 96.7445 87.2L98.5445 85.9V117C98.5445 117.8 98.2445 118.5 97.6445 119.1C97.1112 119.7 96.4112 120 95.5445 120C94.6779 120 93.9445 119.7 93.3445 119.1C92.8112 118.5 92.5445 117.8 92.5445 117V51.8C92.5445 50.9333 92.8112 50.2 93.3445 49.6C93.8779 49 94.6112 48.7 95.5445 48.7C96.4112 48.7 97.1112 49 97.6445 49.6C98.2445 50.2 98.5445 50.9333 98.5445 51.8V62.6L97.1445 61.8C97.8112 59.7333 98.7779 57.9 100.045 56.3C101.378 54.6333 102.911 53.2333 104.645 52.1C106.378 50.9 108.278 50 110.345 49.4C112.411 48.8 114.578 48.5 116.845 48.5ZM116.345 54.1C112.745 54.1 109.578 55 106.845 56.8C104.111 58.5333 101.945 60.9333 100.345 64C98.8112 67 98.0445 70.5 98.0445 74.5C98.0445 78.4333 98.8112 81.9667 100.345 85.1C101.945 88.2333 104.111 90.7 106.845 92.5C109.578 94.2333 112.745 95.1 116.345 95.1C119.878 95.1 122.978 94.2333 125.645 92.5C128.378 90.7 130.545 88.2333 132.145 85.1C133.745 81.9667 134.545 78.4333 134.545 74.5C134.545 70.5667 133.745 67.0667 132.145 64C130.545 60.9333 128.378 58.5333 125.645 56.8C122.978 55 119.878 54.1 116.345 54.1ZM158.989 97C158.989 97.8 158.689 98.5 158.089 99.1C157.489 99.7 156.789 100 155.989 100C155.122 100 154.389 99.7 153.789 99.1C153.256 98.5 152.989 97.8 152.989 97V51C152.989 50.2 153.256 49.5 153.789 48.9C154.389 48.3 155.122 48 155.989 48C156.856 48 157.556 48.3 158.089 48.9C158.689 49.5 158.989 50.2 158.989 51V97ZM155.989 41.3C154.589 41.3 153.522 41 152.789 40.4C152.122 39.7333 151.789 38.8 151.789 37.6V36.6C151.789 35.4 152.156 34.5 152.889 33.9C153.689 33.2333 154.756 32.9 156.089 32.9C157.356 32.9 158.322 33.2333 158.989 33.9C159.722 34.5 160.089 35.4 160.089 36.6V37.6C160.089 38.8 159.722 39.7333 158.989 40.4C158.322 41 157.322 41.3 155.989 41.3Z"
      fill="black" />
  <path d="M233.5 62C233.5 62 198 26 207.086 25.25L259.914 25.25C269 26 233.5 62 233.5 62Z"
      fill="#23176D" />
  <path
      d="M233.502 74C233.502 74 269.002 110 259.915 110.75H207.088C198.002 110 233.502 74 233.502 74Z"
      fill="#FB891F" />
  <circle cx="183.5" cy="26.5" r="7.5" fill="black" />
  <circle cx="183.5" cy="110.5" r="7.5" fill="black" />
  <path
      d="M186.608 103.564C185.815 104.333 185.795 105.599 186.564 106.392C187.333 107.185 188.599 107.205 189.392 106.436L186.608 103.564ZM186.655 33.4799C194.883 40.9602 200.941 47.1569 204.937 52.7283C208.92 58.2802 210.75 63.0641 210.75 67.75C210.75 72.4453 208.913 77.3629 204.914 83.1794C200.907 89.0087 194.838 95.5833 186.608 103.564L189.392 106.436C197.662 98.4167 203.968 91.6163 208.211 85.4456C212.462 79.2621 214.75 73.5547 214.75 67.75C214.75 61.9359 212.455 56.3448 208.188 50.3967C203.934 44.4681 197.617 38.0398 189.345 30.5201L186.655 33.4799Z"
      fill="black" />
  <circle cx="7.5" cy="7.5" r="7.5" transform="matrix(-1 0 0 1 290.75 19)" fill="black" />
  <circle cx="7.5" cy="7.5" r="7.5" transform="matrix(-1 0 0 1 290.75 103)" fill="black" />
  <path
      d="M280.142 103.564C280.935 104.333 280.955 105.599 280.186 106.392C279.417 107.185 278.151 107.205 277.358 106.436L280.142 103.564ZM280.095 33.4799C271.867 40.9602 265.809 47.1569 261.813 52.7283C257.83 58.2802 256 63.0641 256 67.75C256 72.4453 257.837 77.3629 261.836 83.1794C265.843 89.0087 271.912 95.5833 280.142 103.564L277.358 106.436C269.088 98.4167 262.782 91.6163 258.539 85.4456C254.288 79.2621 252 73.5547 252 67.75C252 61.9359 254.295 56.3448 258.562 50.3967C262.816 44.4681 269.133 38.0398 277.405 30.5201L280.095 33.4799Z"
      fill="black" />
  <rect x="2" y="5" width="318" height="126" rx="23" stroke="black" stroke-width="4" />
</svg>